<svg width="32" height="32" viewBox="0 0 32 32" fill="none" xmlns="http://www.w3.org/2000/svg">
  <!-- 渐变定义 -->
  <defs>
    <linearGradient id="orangeGradient" x1="0%" y1="0%" x2="100%" y2="100%">
      <stop offset="0%" style="stop-color:#ff8c00;stop-opacity:1" />
      <stop offset="100%" style="stop-color:#ff6600;stop-opacity:1" />
    </linearGradient>
    <linearGradient id="chartGradient" x1="0%" y1="0%" x2="100%" y2="100%">
      <stop offset="0%" style="stop-color:#ff8c00;stop-opacity:0.8" />
      <stop offset="100%" style="stop-color:#ff6600;stop-opacity:0.6" />
    </linearGradient>
    <filter id="glow">
      <feGaussianBlur stdDeviation="1" result="coloredBlur"/>
      <feMerge> 
        <feMergeNode in="coloredBlur"/>
        <feMergeNode in="SourceGraphic"/>
      </feMerge>
    </filter>
  </defs>
  
  <!-- 外框 -->
  <rect x="2" y="2" width="28" height="28" rx="4" stroke="#ff8c00" stroke-width="1.5" fill="none"/>
  
  <!-- 图表网格 -->
  <line x1="5" y1="8" x2="27" y2="8" stroke="#ff8c00" stroke-width="0.3" opacity="0.4"/>
  <line x1="5" y1="14" x2="27" y2="14" stroke="#ff8c00" stroke-width="0.3" opacity="0.4"/>
  <line x1="5" y1="20" x2="27" y2="20" stroke="#ff8c00" stroke-width="0.3" opacity="0.4"/>
  <line x1="5" y1="26" x2="27" y2="26" stroke="#ff8c00" stroke-width="0.3" opacity="0.4"/>
  
  <line x1="8" y1="5" x2="8" y2="27" stroke="#ff8c00" stroke-width="0.3" opacity="0.4"/>
  <line x1="14" y1="5" x2="14" y2="27" stroke="#ff8c00" stroke-width="0.3" opacity="0.4"/>
  <line x1="20" y1="5" x2="20" y2="27" stroke="#ff8c00" stroke-width="0.3" opacity="0.4"/>
  <line x1="26" y1="5" x2="26" y2="27" stroke="#ff8c00" stroke-width="0.3" opacity="0.4"/>
  
  <!-- 柱状图 -->
  <rect x="6" y="22" width="3" height="5" fill="url(#chartGradient)" rx="0.5"/>
  <rect x="12" y="18" width="3" height="9" fill="url(#chartGradient)" rx="0.5"/>
  <rect x="18" y="20" width="3" height="7" fill="url(#chartGradient)" rx="0.5"/>
  <rect x="24" y="16" width="3" height="11" fill="url(#chartGradient)" rx="0.5"/>
  
  <!-- 数据线 -->
  <path d="M7.5 24 L13.5 20 L19.5 22 L25.5 18" 
        stroke="#ff8c00" stroke-width="2" fill="none" filter="url(#glow)"/>
  
  <!-- 数据点 -->
  <circle cx="7.5" cy="24" r="1.5" fill="#ff8c00"/>
  <circle cx="13.5" cy="20" r="1.5" fill="#ff8c00"/>
  <circle cx="19.5" cy="22" r="1.5" fill="#ff8c00"/>
  <circle cx="25.5" cy="18" r="1.5" fill="#ff8c00"/>
  
  <!-- KFM 标识 -->
  <text x="16" y="12" font-family="system-ui, -apple-system, BlinkMacSystemFont, 'Segoe UI', Roboto, sans-serif" 
        font-size="6" font-weight="700" fill="#ff8c00" text-anchor="middle">
    KFM
  </text>
</svg>