<svg width="32" height="32" viewBox="0 0 32 32" fill="none" xmlns="http://www.w3.org/2000/svg">
  <!-- 渐变定义 -->
  <defs>
    <linearGradient id="bgGradient" x1="0%" y1="0%" x2="100%" y2="100%">
      <stop offset="0%" style="stop-color:#ea580c;stop-opacity:1" />
      <stop offset="100%" style="stop-color:#f97316;stop-opacity:1" />
    </linearGradient>
    <linearGradient id="ringGradient" x1="0%" y1="0%" x2="100%" y2="100%">
      <stop offset="0%" style="stop-color:#3b82f6;stop-opacity:1" />
      <stop offset="50%" style="stop-color:#60a5fa;stop-opacity:1" />
      <stop offset="100%" style="stop-color:#3b82f6;stop-opacity:1" />
    </linearGradient>
    <linearGradient id="glowGradient" x1="0%" y1="0%" x2="100%" y2="100%">
      <stop offset="0%" style="stop-color:#10b981;stop-opacity:1" />
      <stop offset="100%" style="stop-color:#34d399;stop-opacity:1" />
    </linearGradient>
    <linearGradient id="accentGradient" x1="0%" y1="0%" x2="100%" y2="100%">
      <stop offset="0%" style="stop-color:#f59e0b;stop-opacity:1" />
      <stop offset="100%" style="stop-color:#fbbf24;stop-opacity:1" />
    </linearGradient>
    <filter id="glow">
      <feGaussianBlur stdDeviation="1.5" result="coloredBlur"/>
      <feMerge> 
        <feMergeNode in="coloredBlur"/>
        <feMergeNode in="SourceGraphic"/>
      </feMerge>
    </filter>
  </defs>
  
  <!-- 背景圆形 -->
  <circle cx="16" cy="16" r="16" fill="url(#bgGradient)"/>
  
  <!-- 外圆环 - 科技感边框 -->
  <circle cx="16" cy="16" r="13" stroke="url(#ringGradient)" stroke-width="2" fill="none" opacity="0.9"/>
  <circle cx="16" cy="16" r="11" stroke="url(#ringGradient)" stroke-width="1" fill="none" opacity="0.7"/>
  
  <!-- 装饰性圆点 -->
  <circle cx="7" cy="7" r="1.2" fill="url(#accentGradient)" opacity="0.8"/>
  <circle cx="25" cy="7" r="1.2" fill="url(#accentGradient)" opacity="0.8"/>
  <circle cx="7" cy="25" r="1.2" fill="url(#accentGradient)" opacity="0.8"/>
  <circle cx="25" cy="25" r="1.2" fill="url(#accentGradient)" opacity="0.8"/>
  
  <!-- 中心监控屏幕 - 更大的形状 -->
  <rect x="9" y="11" width="14" height="9" rx="1.5" stroke="url(#ringGradient)" stroke-width="1.2" fill="none"/>
  
  <!-- 屏幕内部网格 -->
  <line x1="11" y1="13.5" x2="21" y2="13.5" stroke="#60a5fa" stroke-width="0.3" opacity="0.6"/>
  <line x1="11" y1="16.5" x2="21" y2="16.5" stroke="#60a5fa" stroke-width="0.3" opacity="0.6"/>
  <line x1="11" y1="19.5" x2="21" y2="19.5" stroke="#60a5fa" stroke-width="0.3" opacity="0.6"/>
  
  <!-- 屏幕内容 - 复杂的数据波形 -->
  <path d="M11 17 L12.5 15 L14 17.5 L15.5 16 L17 18.5 L18.5 17 L20 19.5 L21 18" 
        stroke="url(#glowGradient)" stroke-width="1.2" fill="none" filter="url(#glow)"/>
  
  <!-- 实时数据点 -->
  <circle cx="12.5" cy="15" r="0.8" fill="#10b981"/>
  <circle cx="14" cy="17.5" r="0.8" fill="#10b981"/>
  <circle cx="15.5" cy="16" r="0.8" fill="#10b981"/>
  <circle cx="17" cy="18.5" r="0.8" fill="#10b981"/>
  <circle cx="18.5" cy="17" r="0.8" fill="#10b981"/>
  <circle cx="20" cy="19.5" r="0.8" fill="#10b981"/>
  <circle cx="21" cy="18" r="0.8" fill="#10b981"/>
  
  <!-- 控制按钮 - 更大的设计 -->
  <rect x="10" y="22" width="2" height="0.8" rx="0.4" fill="url(#ringGradient)" opacity="0.9"/>
  <rect x="15" y="22" width="2" height="0.8" rx="0.4" fill="url(#ringGradient)" opacity="0.9"/>
  <rect x="18.5" y="22" width="2" height="0.8" rx="0.4" fill="url(#ringGradient)" opacity="0.9"/>
  
  <!-- 状态指示灯 - 脉冲效果 -->
  <circle cx="22" cy="9" r="2" fill="url(#glowGradient)" filter="url(#glow)"/>
  <circle cx="22" cy="9" r="1.2" fill="#10b981"/>
  
  <!-- 连接线 -->
  <line x1="20.5" y1="10.5" x2="22" y2="9" stroke="#60a5fa" stroke-width="0.6" opacity="0.8"/>
  
  <!-- 装饰性科技线条 -->
  <line x1="6" y1="6" x2="8" y2="8" stroke="url(#accentGradient)" stroke-width="0.5" opacity="0.7"/>
  <line x1="24" y1="6" x2="26" y2="8" stroke="url(#accentGradient)" stroke-width="0.5" opacity="0.7"/>
  <line x1="6" y1="26" x2="8" y2="24" stroke="url(#accentGradient)" stroke-width="0.5" opacity="0.7"/>
  <line x1="24" y1="26" x2="26" y2="24" stroke="url(#accentGradient)" stroke-width="0.5" opacity="0.7"/>
</svg> 